<?xml version="1.0" encoding="UTF-8" standalone="no"?>
<!-- Created with Inkscape (http://www.inkscape.org/) -->

<svg
   xmlns:dc="http://purl.org/dc/elements/1.1/"
   xmlns:cc="http://creativecommons.org/ns#"
   xmlns:rdf="http://www.w3.org/1999/02/22-rdf-syntax-ns#"
   xmlns:svg="http://www.w3.org/2000/svg"
   xmlns="http://www.w3.org/2000/svg"
   xmlns:sodipodi="http://sodipodi.sourceforge.net/DTD/sodipodi-0.dtd"
   xmlns:inkscape="http://www.inkscape.org/namespaces/inkscape"
   width="210"
   height="50"
   id="svg2"
   version="1.1"
   inkscape:version="0.91 r13725"
   sodipodi:docname="white-orange-logo-horizontal.svg">
  <defs
     id="defs4">
    <clipPath
       id="clipPath6507"
       clipPathUnits="userSpaceOnUse">
      <path
         inkscape:connector-curvature="0"
         id="path6509"
         d="m 341.77642,374.16727 c 29.1756,3.16105 55.38964,-17.92792 58.55069,-47.10353 3.16105,-29.17561 -17.92793,-55.38965 -47.10353,-58.55069 -29.17562,-3.16105 -55.38965,17.92792 -58.5507,47.10352 -3.16104,29.17562 17.92792,55.38965 47.10354,58.5507 z"
         style="color:#000000;display:inline;overflow:visible;visibility:visible;fill:#000000;fill-opacity:1;fill-rule:evenodd;stroke:none;stroke-width:4;marker:none;enable-background:accumulate" />
    </clipPath>
    <clipPath
       id="clipPath6503"
       clipPathUnits="userSpaceOnUse">
      <path
         style="color:#000000;display:inline;overflow:visible;visibility:visible;fill:#000000;fill-opacity:1;fill-rule:evenodd;stroke:none;stroke-width:4;marker:none;enable-background:accumulate"
         d="m 531.77642,421.16728 c 29.1756,3.16105 55.38964,-17.92791 58.55069,-47.10352 3.16105,-29.17562 -17.92793,-55.38966 -47.10353,-58.5507 -29.17562,-3.16104 -55.38965,17.92792 -58.5507,47.10352 -3.16104,29.17562 17.92792,55.38965 47.10354,58.5507 z"
         id="path6505"
         inkscape:connector-curvature="0" />
    </clipPath>
    <clipPath
       id="clipPath6499"
       clipPathUnits="userSpaceOnUse">
      <path
         inkscape:connector-curvature="0"
         id="path6501"
         d="m 341.77642,374.16727 c 29.1756,3.16105 55.38964,-17.92792 58.55069,-47.10353 3.16105,-29.17561 -17.92793,-55.38965 -47.10353,-58.55069 -29.17562,-3.16105 -55.38965,17.92792 -58.5507,47.10352 -3.16104,29.17562 17.92792,55.38965 47.10354,58.5507 z"
         style="color:#000000;display:inline;overflow:visible;visibility:visible;fill:#000000;fill-opacity:1;fill-rule:evenodd;stroke:none;stroke-width:4;marker:none;enable-background:accumulate" />
    </clipPath>
  </defs>
  <sodipodi:namedview
     id="base"
     pagecolor="#949494"
     bordercolor="#666666"
     borderopacity="1.0"
     inkscape:pageopacity="0"
     inkscape:pageshadow="2"
     inkscape:zoom="0.35"
     inkscape:cx="216.79585"
     inkscape:cy="405.03787"
     inkscape:document-units="px"
     inkscape:current-layer="layer1"
     showgrid="true"
     inkscape:window-width="1855"
     inkscape:window-height="1056"
     inkscape:window-x="65"
     inkscape:window-y="24"
     inkscape:window-maximized="1"
     showguides="true"
     inkscape:guide-bbox="true">
    <sodipodi:guide
       position="-560,300"
       orientation="0,1"
       id="guide4291" />
    <inkscape:grid
       type="xygrid"
       id="grid4178" />
  </sodipodi:namedview>
  <metadata
     id="metadata7">
    <rdf:RDF>
      <cc:Work
         rdf:about="">
        <dc:format>image/svg+xml</dc:format>
        <dc:type
           rdf:resource="http://purl.org/dc/dcmitype/StillImage" />
        <dc:title></dc:title>
      </cc:Work>
    </rdf:RDF>
  </metadata>
  <g
     inkscape:label="Layer 1"
     inkscape:groupmode="layer"
     id="layer1"
     transform="translate(0,-1002.3622)">
    <g
       inkscape:label="guides"
       id="layer1-7"
       style="display:none;opacity:0.26122448"
       transform="translate(-66.029568,166.18109)">
      <path
         style="fill:none;stroke:#000000;stroke-width:0.48424113px;stroke-linecap:butt;stroke-linejoin:miter;stroke-opacity:1"
         d="m 372.03792,439.74758 92.87663,160.86702 -185.73462,0 z"
         id="path2985-7"
         inkscape:connector-curvature="0"
         sodipodi:nodetypes="cccc" />
    </g>
    <g
       id="g4293"
       inkscape:export-xdpi="90"
       inkscape:export-ydpi="90"
       inkscape:export-filename="/home/davor/workspace/aileron-web/home-app/src/images/white-orange-logo-horizontal.png"
       transform="translate(-217.56421,300)">
      <path
         inkscape:connector-curvature="0"
         id="path4261-3-6"
         style="fill:#ffffff;fill-opacity:1;fill-rule:nonzero;stroke:none"
         d="m 245.97855,702.31471 c -1.97131,0 -3.7028,1.07355 -4.61563,2.6732 l -0.0728,0.14188 -9.53512,16.49499 -0.0979,0.17202 c -0.43193,0.76466 -0.67176,1.64736 -0.67176,2.58907 0,1.79553 0.89651,3.38388 2.26011,4.34568 0.0301,0.0201 0.0591,0.0389 0.0892,0.0591 0.004,0 1.48036,1.03965 1.57328,1.10871 8.17153,-3.355 16.62808,-6.08219 25.14239,-8.54445 -3.37509,-5.84111 -9.36813,-16.22001 -9.39701,-16.26897 -0.005,-0.0151 -0.0201,-0.0151 -0.0251,-0.0288 l -0.0289,-0.0691 c -0.91785,-1.60342 -2.64432,-2.6732 -4.62065,-2.6732 z m 0,2.35929 c 1.62853,0 2.95697,1.32468 2.95697,2.95697 0,1.62853 -1.32844,2.93814 -2.95697,2.93814 -1.62853,0 -2.9532,-1.30961 -2.9532,-2.93814 0,-1.63229 1.32467,-2.95697 2.9532,-2.95697 z m -9.67701,16.7549 c 1.62853,0 2.95697,1.32342 2.95697,2.95697 0,1.62853 -1.32844,2.93813 -2.95697,2.93813 -1.62853,0 -2.95822,-1.3096 -2.95822,-2.93813 0,-1.63355 1.32969,-2.95697 2.95822,-2.95697 z m 26.84375,5.3012 c -5.25851,3.8359 -10.64886,7.54874 -15.91615,11.36455 -0.0979,0.0691 -0.19588,0.13686 -0.29884,0.2009 6.90085,4.81653 11.53532,8.06354 18.91707,13.21909 0.8287,0.53866 1.82942,0.84754 2.89921,0.84754 2.93311,0 5.31124,-2.37813 5.31124,-5.31124 0,-1.00073 -0.27498,-1.93239 -0.7496,-2.72719 -4.07698,-7.0578 -5.92524,-10.25585 -10.16293,-17.59365 z m 5.60129,17.36261 c 1.62853,0 2.93813,1.3297 2.93813,2.95823 0,1.62853 -1.3096,2.94315 -2.93813,2.94315 -1.63356,0 -2.95823,-1.31462 -2.95823,-2.94315 0,-1.62853 1.32467,-2.95823 2.95823,-2.95823 z" />
      <path
         inkscape:connector-curvature="0"
         id="path4263-6-7"
         style="fill:#ffffff;fill-opacity:1;fill-rule:evenodd;stroke:none"
         d="m 389.2102,737.12216 3.79887,0 c 0.81914,0 1.48498,0.10546 2.01593,0.32006 0.53709,0.21091 1.01042,0.50766 1.40404,0.86326 0.4071,0.38749 0.73696,0.83751 0.96748,1.37461 0.24894,0.53095 0.34949,1.11587 0.34949,1.71918 0,0.55548 -0.0723,1.06806 -0.26854,1.5659 -0.1962,0.47945 -0.47824,0.91476 -0.83261,1.28877 -0.39362,0.43163 -0.89638,0.7762 -1.48007,1.02513 -0.58982,0.24891 -1.30348,0.34947 -2.15572,0.34947 l -3.79887,0 c -0.85223,0 -1.5659,-0.10056 -2.15572,-0.34947 -0.58369,-0.24893 -1.08644,-0.5935 -1.48006,-1.02513 -0.35437,-0.37401 -0.61311,-0.80932 -0.80931,-1.28877 -0.19129,-0.49784 -0.29184,-1.01042 -0.29184,-1.5659 0,-0.60331 0.11527,-1.18823 0.34947,-1.71918 0.24892,-0.5371 0.56039,-0.98221 0.96751,-1.37461 0.39238,-0.35929 0.86694,-0.65235 1.39912,-0.86326 0.53586,-0.2146 1.20171,-0.32006 2.02083,-0.32006 z m -26.09545,-0.27345 8.1336,0 c 0.58858,0 1.0337,0.16801 1.32188,0.48804 0.26364,0.26365 0.40219,0.61313 0.40219,1.02024 0,0.34089 -0.12016,0.65725 -0.34947,0.94419 -0.14346,0.1778 -0.32618,0.29674 -0.542,0.4022 -0.21092,0.11037 -0.49294,0.1631 -0.8326,0.1631 l -8.53581,0 0,-2.61066 c 0,-0.26854 0.13366,-0.40711 0.40221,-0.40711 z m -68.64574,-0.26854 c 0.1827,0 0.3458,0.0479 0.48926,0.13489 0.13858,0.0907 0.25874,0.23421 0.34947,0.4304 l 2.77376,6.46226 -7.16121,0 2.74431,-6.46226 c 0.0908,-0.21092 0.206,-0.35929 0.34948,-0.4304 0.14346,-0.0872 0.29674,-0.13489 0.45983,-0.13489 l -0.005,0 z m 94.74119,-4.22437 c -1.45554,0 -2.72101,0.21582 -3.82217,0.64132 -1.08767,0.41201 -2.02573,0.97731 -2.83137,1.72531 -0.90496,0.83752 -1.63823,1.82464 -2.15081,2.96502 -0.51625,1.13428 -0.77987,2.37032 -0.77987,3.6873 0,1.19312 0.2109,2.309 0.61801,3.33903 0.40711,1.03002 0.99079,1.9448 1.72409,2.74921 0.83261,0.90618 1.84916,1.61985 3.04105,2.15081 1.19312,0.51747 2.58244,0.7811 4.20107,0.7811 l 3.79887,0 c 1.61864,0 3.03616,-0.26363 4.22928,-0.7811 1.18822,-0.53096 2.20355,-1.24463 3.04106,-2.15081 0.72838,-0.80441 1.28877,-1.71919 1.69588,-2.74921 0.4071,-1.03003 0.61802,-2.14591 0.61802,-3.33903 0,-1.31698 -0.26364,-2.55302 -0.78111,-3.6873 -0.51625,-1.14038 -1.22133,-2.1275 -2.12629,-2.96502 -0.79949,-0.748 -1.75351,-1.3133 -2.85467,-1.72531 -1.08766,-0.4255 -2.36663,-0.64132 -3.82217,-0.64132 l -3.79887,0 z m -30.13344,0 c -0.80073,0 -1.18331,0.35438 -1.18331,1.10116 l 0,16.93794 4.81909,0 0,-6.40952 8.40092,0 c 0.71367,0 1.23114,0.12999 1.5328,0.37892 0.30655,0.24892 0.45983,0.64132 0.45983,1.21152 l 0,3.60757 c 0,0.41202 0.0294,0.8228 0.0821,1.21151 l 4.87551,0 c -0.038,-0.24892 -0.0662,-0.50274 -0.0809,-0.75166 l 0,-4.55056 c 0,-1.03494 -0.14837,-1.84916 -0.43163,-2.39974 -0.26855,-0.55179 -0.68915,-0.98711 -1.29245,-1.3464 0.6364,-0.45984 1.06805,-1.03003 1.31697,-1.66645 0.24893,-0.66094 0.37768,-1.3464 0.37768,-2.07479 0,-0.67566 -0.13857,-1.30716 -0.4022,-1.91047 -0.24893,-0.62293 -0.60821,-1.18332 -1.05334,-1.64316 -0.49295,-0.51747 -1.10238,-0.90984 -1.82953,-1.21273 -0.7284,-0.32005 -1.65297,-0.48314 -2.77374,-0.48314 l -12.81782,0 z m -19.87356,0 c -1.71059,0 -2.55792,0.7995 -2.55792,2.41937 l 0,13.11455 c 0,1.67626 0.83752,2.50518 2.5285,2.50518 l 16.43029,0 0,-4.63147 -13.70929,0 c -0.28202,0 -0.43041,-0.13489 -0.43041,-0.45616 l 0,-2.20721 14.08206,0 0,-3.4776 -14.08206,0 0,-2.04536 c 0,-0.30165 0.14839,-0.45494 0.43041,-0.45494 l 13.70929,0 0,-4.76636 -16.40087,0 z m -23.40387,0 0,12.17158 c 0,0.97731 0.10054,1.83445 0.29675,2.58124 0.19618,0.73327 0.52727,1.33658 0.9675,1.83443 0.46473,0.47946 1.05823,0.85346 1.80622,1.10238 0.7664,0.23421 1.6959,0.34947 2.80195,0.34947 l 13.11457,0 0,-4.63147 -12.52107,0 c -0.62171,0 -1.03371,-0.11527 -1.26914,-0.35071 -0.21092,-0.24892 -0.32128,-0.68423 -0.32128,-1.34516 l 0,-11.71176 -4.8755,0 z m -7.40523,0 0,18.0391 4.8473,0 0,-18.0391 -4.8473,0 z m 100.63692,-0.40711 c -0.6033,0 -1.15388,0.0809 -1.66645,0.24402 -0.51747,0.13858 -0.97239,0.38873 -1.35131,0.72838 -0.37277,0.33477 -0.64622,0.75659 -0.85714,1.29368 -0.19618,0.53095 -0.29673,1.19681 -0.29673,1.96319 l 0,14.21694 4.73694,0 0,-12.2243 c 0,-0.16309 0.0479,-0.28694 0.13365,-0.37769 0.0919,-0.0872 0.20233,-0.13487 0.32618,-0.13487 0.13856,0 0.28694,0.0821 0.43164,0.244 l 8.21453,11.44322 c 0.42673,0.49906 0.90987,0.86327 1.48006,1.07786 0.58368,0.23053 1.27896,0.34947 2.04535,0.34947 0.44512,0 0.85714,-0.0809 1.26425,-0.24402 0.41202,-0.13857 0.77621,-0.3691 1.07787,-0.67074 0.32126,-0.32005 0.58,-0.73206 0.75658,-1.21152 0.19619,-0.49786 0.29673,-1.07296 0.29673,-1.74861 l 0,-14.5419 -4.74183,0 0,11.65902 c 0,0.32005 -0.12875,0.48313 -0.37767,0.48313 -0.0871,0 -0.168,-0.01 -0.24034,-0.0233 -0.0711,-0.0381 -0.14348,-0.10055 -0.2146,-0.19129 l -7.10847,-10.55786 c -0.5702,-0.65605 -1.1404,-1.10608 -1.7253,-1.36971 -0.58861,-0.26855 -1.32678,-0.40711 -2.18394,-0.40711 z m -114.5853,0 c -1.29859,0 -2.37156,0.28204 -3.20416,0.83383 -0.83874,0.55549 -1.50458,1.38443 -2.02205,2.5052 l -6.46102,14.30279 c -0.0724,0.13855 -0.1349,0.27712 -0.18761,0.4022 -0.038,0.12385 -0.0711,0.26364 -0.11037,0.40219 l 5.57569,0 c 0.0196,-0.10545 0.0428,-0.2158 0.0821,-0.32126 0.033,-0.10545 0.0711,-0.21581 0.10546,-0.32496 l 0.94298,-2.15081 10.66209,0 0.9724,2.17902 c 0.0344,0.0908 0.0724,0.1913 0.10547,0.29675 0.0392,0.0858 0.0723,0.19619 0.11034,0.32126 l 5.43713,0 c -0.0344,-0.13855 -0.0774,-0.27834 -0.13489,-0.40219 -0.033,-0.12508 -0.0858,-0.26365 -0.15818,-0.4022 l -6.51866,-14.30279 c -0.51747,-1.12077 -1.19313,-1.94971 -2.04536,-2.50028 -0.83751,-0.55671 -1.88716,-0.83875 -3.1514,-0.83875 z" />
      <path
         inkscape:connector-curvature="0"
         id="path4267-5-3"
         style="fill:#ffc400;fill-opacity:1;fill-rule:nonzero;stroke:none"
         d="m 270.84596,719.52539 c 0,0 -32.548,8.83324 -44.36331,15.52817 -8.65745,4.90944 -10.56975,13.55183 -7.63287,16.05803 2.49741,2.13454 7.00883,0.0641 10.73172,-2.31409 10.9728,-7.00884 41.26446,-29.27211 41.26446,-29.27211 z m -47.78737,23.28785 c 1.90853,0 3.468,1.55948 3.468,3.46801 0,1.9123 -1.55947,3.45293 -3.468,3.45293 -1.9123,0 -3.45293,-1.54063 -3.45293,-3.45293 0,-1.90853 1.54063,-3.46801 3.45293,-3.46801 z" />
    </g>
  </g>
</svg>
