<?xml version="1.0" standalone="no"?>
<!DOCTYPE svg PUBLIC "-//W3C//DTD SVG 20010904//EN"
 "http://www.w3.org/TR/2001/REC-SVG-20010904/DTD/svg10.dtd">
<svg version="1.0" xmlns="http://www.w3.org/2000/svg"
 width="271.000000pt" height="271.000000pt" viewBox="0 0 271.000000 271.000000"
 preserveAspectRatio="xMidYMid meet">
<metadata>
Created by potrace 1.11, written by Peter Selinger 2001-2013
</metadata>
<g transform="translate(0.000000,271.000000) scale(0.100000,-0.100000)"
fill="#000000" stroke="none">
<path d="M1304 2511 c-46 -12 -101 -48 -128 -84 -13 -18 -77 -124 -142 -237
-64 -113 -164 -285 -220 -383 -57 -99 -108 -195 -115 -214 -31 -94 18 -212
115 -276 l53 -35 139 54 c165 65 606 214 824 279 85 26 156 48 158 50 2 2 -48
93 -111 202 -63 109 -124 214 -134 233 -179 315 -217 368 -287 398 -39 17
-112 23 -152 13z m147 -137 c82 -79 36 -211 -78 -221 -138 -12 -197 164 -80
238 46 29 118 22 158 -17z m-453 -734 c61 -37 79 -122 39 -181 -77 -115 -248
-54 -239 85 7 89 121 144 200 96z"/>
<path d="M2210 1670 c-654 -190 -1140 -356 -1500 -512 -99 -42 -248 -122 -305
-163 -205 -147 -324 -351 -313 -532 4 -63 9 -79 35 -111 90 -112 270 -72 571
127 266 176 680 468 1372 969 367 266 402 293 385 291 -6 0 -116 -31 -245 -69z
m-1805 -990 c80 -39 109 -150 58 -219 -37 -48 -71 -66 -128 -66 -119 0 -192
122 -135 224 43 75 125 100 205 61z"/>
<path d="M1875 1240 c-421 -301 -464 -333 -460 -340 4 -6 143 -105 339 -240
28 -20 125 -87 215 -150 270 -189 302 -211 330 -221 81 -31 186 -10 247 50 53
53 67 87 71 168 l3 71 -132 229 c-72 125 -143 249 -157 274 -104 182 -197 339
-201 338 -3 0 -117 -81 -255 -179z m588 -624 c47 -32 64 -107 36 -163 -29 -60
-100 -87 -162 -64 -36 14 -76 61 -83 98 -22 117 106 196 209 129z"/>
</g>
</svg>
